<svg width="572.47900390625px" height="122px" xmlns="http://www.w3.org/2000/svg"
  viewBox="-36.239501953125 14 572.47900390625 122" style="background: rgba(0, 0, 0, 0);"
  preserveAspectRatio="xMidYMid">
  <defs>
    <filter id="editing-offset">
      <feFlood flood-color="#f00" flood-opacity="0.5" result="c1"></feFlood>
      <feFlood flood-color="#0f0" flood-opacity="0.5" result="c2"></feFlood>
      <feFlood flood-color="#00f" flood-opacity="0.5" result="c3"></feFlood>
      <feComposite operator="in" in="c1" in2="SourceAlpha" result="text-c1"></feComposite>
      <feComposite operator="in" in="c2" in2="SourceAlpha" result="text-c2"></feComposite>
      <feComposite operator="in" in="c3" in2="SourceAlpha" result="text-c3"></feComposite>
      <feOffset in="text-c1" dx="-10" dy="0" result="text1"></feOffset>
      <feOffset in="text-c2" dx="10" dy="0" result="text2"></feOffset>
      <feOffset in="text-c3" dx="0" dy="0" result="text3"></feOffset>
      <feMerge>
        <feMergeNode in="text1"></feMergeNode>
        <feMergeNode in="text2"></feMergeNode>
        <feMergeNode in="text3"></feMergeNode>
      </feMerge>
    </filter>
  </defs>
  <g filter="url(#editing-offset)">
    <g transform="translate(46.979565262794495, 104.76000022888184)">
      <path
        d="M34.50-13.25L34.50-13.25L34.50-13.25Q36.16-12.03 36.16-9.44L36.16-9.44L36.16-9.44Q36.16-6.85 35.04-5.02L35.04-5.02L35.04-5.02Q33.92-3.20 31.74-1.79L31.74-1.79L31.74-1.79Q27.07 1.22 18.91 1.22L18.91 1.22L18.91 1.22Q10.75 1.22 6.30-3.04L6.30-3.04L6.30-3.04Q1.86-7.30 1.86-14.85L1.86-14.85L1.86-14.85Q1.86-25.54 7.42-33.66L7.42-33.66L7.42-33.66Q11.65-39.68 19.20-42.24L19.20-42.24L19.20-42.24Q23.10-43.52 26.94-43.52L26.94-43.52L26.94-43.52Q30.78-43.52 33.15-43.01L33.15-43.01L33.15-43.01Q35.52-42.50 37.31-41.47L37.31-41.47L37.31-41.47Q41.22-39.23 41.22-35.65L41.22-35.65L41.22-35.65Q41.22-32.38 38.14-29.95L38.14-29.95L38.14-29.95Q35.33-27.78 33.02-27.78L33.02-27.78L33.02-27.78Q30.72-27.78 29.76-28.10L29.76-28.10L29.76-28.10Q30.02-30.40 30.02-31.90L30.02-31.90L30.02-31.90Q30.02-33.41 29.95-34.50L29.95-34.50L29.95-34.50Q29.89-35.58 29.57-36.61L29.57-36.61L29.57-36.61Q28.93-38.98 26.98-38.98L26.98-38.98L26.98-38.98Q25.02-38.98 23.07-37.15L23.07-37.15L23.07-37.15Q21.12-35.33 19.46-32.26L19.46-32.26L19.46-32.26Q15.68-25.28 15.68-17.02L15.68-17.02L15.68-17.02Q15.68-13.06 17.92-10.78L17.92-10.78L17.92-10.78Q20.16-8.51 24.96-8.51L24.96-8.51L24.96-8.51Q28.54-8.51 31.94-10.88L31.94-10.88L31.94-10.88Q33.41-11.90 34.50-13.25ZM55.42 1.28L55.42 1.28L55.42 1.28Q41.34 1.28 41.34-11.97L41.34-11.97L41.34-11.97Q41.34-21.38 46.53-27.46L46.53-27.46L46.53-27.46Q52.03-33.92 61.57-33.92L61.57-33.92L61.57-33.92Q68.48-33.92 72-30.72L72-30.72L72-30.72Q75.52-27.52 75.52-20.80L75.52-20.80L75.52-20.80Q75.52-10.56 70.02-4.61L70.02-4.61L70.02-4.61Q64.64 1.28 55.42 1.28ZM57.09-26.56L57.09-26.56L57.09-26.56Q56.32-24.83 55.71-22.24L55.71-22.24L55.71-22.24Q55.10-19.65 54.34-15.55L54.34-15.55L54.34-15.55Q53.57-11.46 53.57-6.40L53.57-6.40L53.57-6.40Q53.57-4.74 54.11-3.65L54.11-3.65L54.11-3.65Q54.66-2.56 56.13-2.56L56.13-2.56L56.13-2.56Q57.60-2.56 58.53-3.26L58.53-3.26L58.53-3.26Q59.46-3.97 60.16-5.63L60.16-5.63L60.16-5.63Q61.44-8.58 62.46-14.05L62.46-14.05L62.46-14.05Q63.49-19.52 63.58-21.89L63.58-21.89L63.58-21.89Q63.68-24.26 63.68-26.02L63.68-26.02L63.68-26.02Q63.68-27.78 63.17-28.93L63.17-28.93L63.17-28.93Q62.66-30.08 61.22-30.08L61.22-30.08L61.22-30.08Q59.78-30.08 58.82-29.18L58.82-29.18L58.82-29.18Q57.86-28.29 57.09-26.56ZM94.59-3.52L94.59-3.52L94.59-3.52Q92.61 1.28 86.27 1.28L86.27 1.28L86.27 1.28Q83.07 1.28 81.02-0.96L81.02-0.96L81.02-0.96Q79.36-2.82 79.36-4.93L79.36-4.93L79.36-4.93Q79.36-9.73 81.60-20.22L81.60-20.22L86.27-44.80L99.26-46.08L93.06-13.70L93.06-13.70Q91.97-8.96 91.97-7.30L91.97-7.30L91.97-7.30Q91.97-3.65 94.59-3.52ZM113.98 1.28L113.98 1.28L113.98 1.28Q99.90 1.28 99.90-11.97L99.90-11.97L99.90-11.97Q99.90-21.38 105.09-27.46L105.09-27.46L105.09-27.46Q110.59-33.92 120.13-33.92L120.13-33.92L120.13-33.92Q127.04-33.92 130.56-30.72L130.56-30.72L130.56-30.72Q134.08-27.52 134.08-20.80L134.08-20.80L134.08-20.80Q134.08-10.56 128.58-4.61L128.58-4.61L128.58-4.61Q123.20 1.28 113.98 1.28ZM115.65-26.56L115.65-26.56L115.65-26.56Q114.88-24.83 114.27-22.24L114.27-22.24L114.27-22.24Q113.66-19.65 112.90-15.55L112.90-15.55L112.90-15.55Q112.13-11.46 112.13-6.40L112.13-6.40L112.13-6.40Q112.13-4.74 112.67-3.65L112.67-3.65L112.67-3.65Q113.22-2.56 114.69-2.56L114.69-2.56L114.69-2.56Q116.16-2.56 117.09-3.26L117.09-3.26L117.09-3.26Q118.02-3.97 118.72-5.63L118.72-5.63L118.72-5.63Q120-8.58 121.02-14.05L121.02-14.05L121.02-14.05Q122.05-19.52 122.14-21.89L122.14-21.89L122.14-21.89Q122.24-24.26 122.24-26.02L122.24-26.02L122.24-26.02Q122.24-27.78 121.73-28.93L121.73-28.93L121.73-28.93Q121.22-30.08 119.78-30.08L119.78-30.08L119.78-30.08Q118.34-30.08 117.38-29.18L117.38-29.18L117.38-29.18Q116.42-28.29 115.65-26.56ZM157.89-17.98L157.89-17.98L157.89-17.98Q160.19-22.08 160.19-26.24L160.19-26.24L160.19-26.24Q160.19-28.99 158.21-28.99L158.21-28.99L158.21-28.99Q156.67-28.99 155.07-26.37L155.07-26.37L155.07-26.37Q153.41-23.74 152.90-20.35L152.90-20.35L149.57 0L136.32 1.28L142.85-32.64L153.41-33.92L152.26-27.46L152.26-27.46Q155.39-33.92 162.43-33.92L162.43-33.92L162.43-33.92Q166.14-33.92 168.16-32L168.16-32L168.16-32Q170.18-30.08 170.18-26.14L170.18-26.14L170.18-26.14Q170.18-22.21 167.58-19.71L167.58-19.71L167.58-19.71Q164.99-17.22 160.58-17.22L160.58-17.22L160.58-17.22Q158.66-17.22 157.89-17.98ZM213.50-33.92L213.50-33.92L213.50-33.92Q208.32-33.92 204.54-35.65L204.54-35.65L202.50-25.28L214.85-25.28L214.85-25.28Q214.85-21.89 213.15-19.74L213.15-19.74L213.15-19.74Q211.46-17.60 208.38-17.60L208.38-17.60L208.38-17.60Q205.06-17.60 201.98-18.82L201.98-18.82L201.98-18.82Q201.34-19.07 201.28-19.14L201.28-19.14L197.63 0L183.68 0L191.81-42.24L220.35-42.24L220.35-42.24Q220.35-38.34 218.53-36.13L218.53-36.13L218.53-36.13Q216.70-33.92 213.50-33.92ZM234.05-3.52L234.05-3.52L234.05-3.52Q232.06 1.28 225.73 1.28L225.73 1.28L225.73 1.28Q222.53 1.28 220.48-0.96L220.48-0.96L220.48-0.96Q218.82-2.82 218.82-4.93L218.82-4.93L218.82-4.93Q218.82-9.73 221.06-20.22L221.06-20.22L225.73-44.80L238.72-46.08L232.51-13.70L232.51-13.70Q231.42-8.96 231.42-7.30L231.42-7.30L231.42-7.30Q231.42-3.65 234.05-3.52ZM254.85-3.52L254.85-3.52L254.85-3.52Q252.86 1.28 246.53 1.28L246.53 1.28L246.53 1.28Q243.26 1.28 241.22-0.96L241.22-0.96L241.22-0.96Q239.49-2.94 239.49-4.93L239.49-4.93L239.49-4.93Q239.49-10.11 241.86-20.22L241.86-20.22L244.22-32.64L257.22-33.92L253.31-13.70L253.31-13.70Q252.22-8.96 252.22-7.30L252.22-7.30L252.22-7.30Q252.22-3.65 254.85-3.52ZM245.38-41.54L245.38-41.54L245.38-41.54Q245.38-44.03 247.46-45.38L247.46-45.38L247.46-45.38Q249.54-46.72 252.54-46.72L252.54-46.72L252.54-46.72Q255.55-46.72 257.38-45.38L257.38-45.38L257.38-45.38Q259.20-44.03 259.20-41.54L259.20-41.54L259.20-41.54Q259.20-39.04 257.18-37.76L257.18-37.76L257.18-37.76Q255.17-36.48 252.16-36.48L252.16-36.48L252.16-36.48Q249.15-36.48 247.26-37.76L247.26-37.76L247.26-37.76Q245.38-39.04 245.38-41.54ZM290.11-4.38L290.11-4.38L290.11-4.38Q287.42-1.66 283.74-0.19L283.74-0.19L283.74-0.19Q280.06 1.28 276.42 1.28L276.42 1.28L276.42 1.28Q272.77 1.28 271.49 0.64L271.49 0.64L269.50 11.52L256.51 12.80L265.34-32.64L275.78-33.73L274.94-29.31L274.94-29.31Q277.63-33.86 283.20-33.86L283.20-33.86L283.20-33.86Q289.47-33.86 292.80-29.82L292.80-29.82L292.80-29.82Q295.74-26.18 295.74-20.61L295.74-20.61L295.74-20.61Q295.74-15.04 294.27-11.07L294.27-11.07L294.27-11.07Q292.80-7.10 290.11-4.38ZM275.65-22.34L272.26-3.58L272.26-3.58Q273.60-2.43 275.26-2.43L275.26-2.43L275.26-2.43Q276.93-2.43 277.89-3.07L277.89-3.07L277.89-3.07Q278.85-3.71 279.55-4.99L279.55-4.99L279.55-4.99Q281.47-8.45 283.01-18.94L283.01-18.94L283.01-18.94Q283.46-22.02 283.46-25.02L283.46-25.02L283.46-25.02Q283.46-28.03 282.78-28.99L282.78-28.99L282.78-28.99Q282.11-29.95 280.83-29.95L280.83-29.95L280.83-29.95Q276.93-29.95 275.65-22.34L275.65-22.34ZM329.41-4.38L329.41-4.38L329.41-4.38Q326.72-1.66 323.04-0.19L323.04-0.19L323.04-0.19Q319.36 1.28 315.71 1.28L315.71 1.28L315.71 1.28Q312.06 1.28 310.78 0.64L310.78 0.64L308.80 11.52L295.81 12.80L304.64-32.64L315.07-33.73L314.24-29.31L314.24-29.31Q316.93-33.86 322.50-33.86L322.50-33.86L322.50-33.86Q328.77-33.86 332.10-29.82L332.10-29.82L332.10-29.82Q335.04-26.18 335.04-20.61L335.04-20.61L335.04-20.61Q335.04-15.04 333.57-11.07L333.57-11.07L333.57-11.07Q332.10-7.10 329.41-4.38ZM314.94-22.34L311.55-3.58L311.55-3.58Q312.90-2.43 314.56-2.43L314.56-2.43L314.56-2.43Q316.22-2.43 317.18-3.07L317.18-3.07L317.18-3.07Q318.14-3.71 318.85-4.99L318.85-4.99L318.85-4.99Q320.77-8.45 322.30-18.94L322.30-18.94L322.30-18.94Q322.75-22.02 322.75-25.02L322.75-25.02L322.75-25.02Q322.75-28.03 322.08-28.99L322.08-28.99L322.08-28.99Q321.41-29.95 320.13-29.95L320.13-29.95L320.13-29.95Q316.22-29.95 314.94-22.34L314.94-22.34ZM364.80-10.82L364.80-10.82L364.80-10.82Q366.40-9.73 366.40-7.33L366.40-7.33L366.40-7.33Q366.40-4.93 365.18-3.39L365.18-3.39L365.18-3.39Q363.97-1.86 361.98-0.83L361.98-0.83L361.98-0.83Q357.89 1.28 353.47 1.28L353.47 1.28L353.47 1.28Q349.06 1.28 346.46 0.32L346.46 0.32L346.46 0.32Q343.87-0.64 342.14-2.43L342.14-2.43L342.14-2.43Q338.75-5.82 338.75-12.03L338.75-12.03L338.75-12.03Q338.75-21.70 344-27.58L344-27.58L344-27.58Q349.63-33.92 359.42-33.92L359.42-33.92L359.42-33.92Q365.50-33.92 368.51-31.36L368.51-31.36L368.51-31.36Q370.75-29.44 370.75-26.30L370.75-26.30L370.75-26.30Q370.75-15.04 351.30-15.04L351.30-15.04L351.30-15.04Q351.04-13.38 351.04-11.97L351.04-11.97L351.04-11.97Q351.04-9.02 352.35-7.90L352.35-7.90L352.35-7.90Q353.66-6.78 356.10-6.78L356.10-6.78L356.10-6.78Q358.53-6.78 361.12-7.90L361.12-7.90L361.12-7.90Q363.71-9.02 364.80-10.82ZM351.74-17.79L351.74-17.79L351.74-17.79Q356.29-17.79 358.91-20.61L358.91-20.61L358.91-20.61Q361.54-23.30 361.54-27.58L361.54-27.58L361.54-27.58Q361.54-29.06 360.99-29.86L360.99-29.86L360.99-29.86Q360.45-30.66 359.36-30.66L359.36-30.66L359.36-30.66Q358.27-30.66 357.34-30.24L357.34-30.24L357.34-30.24Q356.42-29.82 355.46-28.42L355.46-28.42L355.46-28.42Q353.09-25.22 351.74-17.79ZM392.96-17.98L392.96-17.98L392.96-17.98Q395.26-22.08 395.26-26.24L395.26-26.24L395.26-26.24Q395.26-28.99 393.28-28.99L393.28-28.99L393.28-28.99Q391.74-28.99 390.14-26.37L390.14-26.37L390.14-26.37Q388.48-23.74 387.97-20.35L387.97-20.35L384.64 0L371.39 1.28L377.92-32.64L388.48-33.92L387.33-27.46L387.33-27.46Q390.46-33.92 397.50-33.92L397.50-33.92L397.50-33.92Q401.22-33.92 403.23-32L403.23-32L403.23-32Q405.25-30.08 405.25-26.14L405.25-26.14L405.25-26.14Q405.25-22.21 402.66-19.71L402.66-19.71L402.66-19.71Q400.06-17.22 395.65-17.22L395.65-17.22L395.65-17.22Q393.73-17.22 392.96-17.98Z"></path>
    </g>
  </g>
  <style>text {
    font-size: 64px;
    font-family: Arial Black;
    dominant-baseline: central;
    text-anchor: middle;
    }</style>
</svg>